<?xml version="1.0" encoding="UTF-8"?>
<svg xmlns="http://www.w3.org/2000/svg" width="951" height="703" viewBox="0 0 951 703">
    <g fill="none" fill-rule="evenodd" opacity=".6">
        <g>
            <g>
                <path stroke="#06183B" d="M328.243 337.323c29.217-84.384 50.557-103.778 70.928-113.03 7.48-3.397 28.016-12.723 49.214-5.796 21.275 6.951 37.315 28.345 60.798 117.377 26.142 99.131 39.216 148.695 18.815 162.302-22.448 14.971-53.427-34.45-123.037-34.779-57.51-.274-83.096 33.24-101.325 18.839-20.074-15.856-2.37-66.995 24.607-144.913z" transform="translate(-869.000000, -115.000000) translate(870.000000, 116.000000)"/>
                <path stroke="#0A1E46" d="M445.123 206.581c14.925 3.5 23.341 7.885 38.65 22.302 16.305 15.354 33.47 46.836 50.513 90.183 2.657 6.752 5.294 12.827 7.045 18.064 31.404 93.893 46.855 154.981 23.17 171.397-12.07 8.31-25.955.364-50.123-9.708-22.856-9.528-49.257-23.197-103.755-18.603-41.994 3.537-62.221 9.092-80.075 14.211-18.77 5.386-39.543 8.575-52.29-7.101-19.025-23.398 2.034-71.969 32.14-160.126 18.78-55.133 30.539-86.227 45.66-102.29 12.039-12.787 22.651-16.675 33.84-17.817 9.513-.972 31.272-6.13 55.225-.512z" transform="translate(-869.000000, -115.000000) translate(870.000000, 116.000000)"/>
                <path stroke="#0E2655" d="M440.172 196.404c19.057 3.312 27.463 4.553 47.13 15.302 24.39 13.335 49.158 48.82 70.78 92.399 3.962 7.988 7.75 14.748 9.865 20.005 40.018 99.497 60.086 176.805 31.867 196.802-13.736 9.656-29.048.515-60.502-9.9-25.837-8.555-52.85-21.019-124.892-11.97-59.048 7.417-80.29 12.033-101.375 16.276-17.992 3.624-47.632 2.89-62.602-20.887-18.847-29.93 6.442-77.015 39.81-175.495 21.677-64.19 31.545-99.722 49.542-115.59 13.782-12.152 25.818-13.472 38.89-11.716 11.687 1.572 34.798.137 61.487 4.774z" transform="translate(-869.000000, -115.000000) translate(870.000000, 116.000000)"/>
                <path stroke="#1A3772" d="M435.296 184.4c23.19 3.018 32.01.648 55.553 8.286 32.968 10.698 65.396 50.58 90.991 94.578 5.35 9.197 10.223 16.66 12.68 21.936 48.88 105.02 73.257 198.563 40.538 222.14-15.386 10.996-32.016.44-70.82-10.09-28.696-7.792-56.36-18.728-145.897-5.326-76.042 11.38-98.11 15.092-122.582 18.336-17.023 2.255-55.988-2.605-72.847-34.677-19.032-36.2 10.85-82.028 47.446-190.797 24.543-73.223 32.44-113.215 53.363-128.844 15.452-11.545 28.947-10.15 43.894-5.603 13.843 4.208 38.323 6.238 67.68 10.06z" transform="translate(-869.000000, -115.000000) translate(870.000000, 116.000000)"/>
                <path stroke="#2A4781" d="M431.47 173.536c27.325 2.641 36.585-3.628 63.95 1.273 41.609 7.452 81.909 52.098 111.154 96.642 6.799 10.356 12.7 18.546 15.48 23.836 57.979 110.337 86.393 220.074 49.191 247.197-17.032 12.323-34.93.191-81.097-10.268-31.517-7.137-59.828-16.37-166.823 1.319-92.983 15.374-115.77 18.316-143.72 20.369-15.97 1.174-64.538-8.008-83.053-48.406-19.416-42.37 15.254-86.944 55.051-205.865 27.404-82.16 33.277-126.614 57.157-141.94 17.083-10.96 32.028-6.764 48.88.513 15.955 6.89 41.832 12.238 73.83 15.33z" transform="translate(-869.000000, -115.000000) translate(870.000000, 116.000000)"/>
                <path stroke="#3E5C97" d="M425.685 162.402c31.452 2.208 41.052-8.118 72.327-5.74 50.138 3.815 98.57 53.57 131.273 98.892 8.294 11.498 15.185 20.46 18.281 25.787 67.27 115.745 99.496 241.995 57.824 272.715-18.67 13.675-37.81-.2-91.351-10.463-34.322-6.582-63.273-14.026-187.699 7.962-109.884 19.417-133.337 21.819-164.808 22.44-14.88.296-73.223-13.393-93.23-62.226-19.917-48.614 19.647-92.023 62.64-221.318 30.249-91.254 34.07-140.303 60.934-155.301 18.686-10.433 35.07-3.372 53.846 6.625 18.041 9.608 45.33 18.195 79.963 20.627z" transform="translate(-869.000000, -115.000000) translate(870.000000, 116.000000)"/>
                <path stroke="#5979B7" d="M421.385 151.565c35.622 1.718 45.715-8.709 80.818-12.715 58.25-6.647 115.486 54.717 151.602 100.763 9.847 12.551 17.705 22.29 21.11 27.634 76.863 120.576 112.758 262.959 66.551 297.155-20.336 14.968-40.752-.704-101.747-10.62-37.185-6.05-66.816-11.62-208.87 14.561-126.956 23.396-151.113 25.545-186.158 24.425-13.815-.44-82.138-18.704-103.56-75.783-20.518-54.676 24.076-96.748 70.327-235.908 33.145-99.982 34.908-153.476 64.807-168.05 20.31-9.898 38.148.032 58.9 12.703 20.133 12.292 48.898 24.035 86.22 25.835z" transform="translate(-869.000000, -115.000000) translate(870.000000, 116.000000)"/>
                <path stroke="#6988C5" d="M416.638 141.184c39.733 1.195 49.75-17.328 89.17-19.737 66.9-4.086 132.257 56.005 171.673 103.07 11.407 13.626 20.193 24.21 23.902 29.597 86.476 125.794 125.826 285.037 75.164 322.848-21.973 16.33-43.625-1.296-111.97-10.824-39.99-5.574-70.237-9.255-229.68 21.216-143.807 27.482-168.675 29.76-207.19 26.514-12.742-1.072-90.982-24.083-113.703-89.652-21.133-60.977 28.456-101.88 77.89-251.498 35.983-109.134 35.674-167.338 68.569-181.507 21.891-9.43 41.142 3.432 63.847 18.824 22.178 15.03 52.372 29.945 92.328 31.149z" transform="translate(-869.000000, -115.000000) translate(870.000000, 116.000000)"/>
                <path stroke="#7D99D2" d="M411.352 129.947c43.887.642 54.011-21.992 97.638-26.74 75.176-8.186 149.237 57.139 191.976 105.241 13.013 14.649 22.72 26.092 26.725 31.526 96.34 130.712 139.066 306.758 83.88 348.144-23.635 17.667-46.557-1.959-122.342-11.011-42.86-5.123-73.697-6.608-250.804 27.85-160.802 31.78-186.57 34.41-228.501 28.566-11.72-1.632-100.01-29.439-124.006-103.417-21.804-67.222 32.882-106.887 85.566-266.773 38.866-118.153 36.48-181.03 72.42-194.745 23.505-8.968 44.185 6.837 68.889 24.932 24.239 17.752 55.907 35.803 98.559 36.427z" transform="translate(-869.000000, -115.000000) translate(870.000000, 116.000000)"/>
                <path stroke="#92ABDE" d="M408.062 118.794c48.033-.667 58.22-26.648 106.107-33.721 83.372-12.318 166.219 58.167 212.267 107.336 14.64 15.63 25.248 27.949 29.548 33.429 106.307 135.405 152.3 328.245 92.59 373.172-25.294 18.993-49.492-2.678-132.708-11.195-45.728-4.679-77.215-4.3-271.905 34.462-177.851 35.744-204.64 39.6-249.8 30.6-10.753-2.142-109.076-34.773-134.3-117.1-22.5-73.427 37.305-111.811 93.228-281.845 41.755-127.078 37.29-194.608 76.271-207.828 25.114-8.517 47.213 10.23 73.918 31.013 26.295 20.463 59.442 42.306 104.784 41.677z" transform="translate(-869.000000, -115.000000) translate(870.000000, 116.000000)"/>
                <path stroke="#B1C4EA" d="M403.35 106.942c52.122-.545 62.312-31.378 114.438-40.794 91.41-16.51 182.997 59.287 232.293 109.696 16.257 16.626 27.742 29.872 32.334 35.417 116.226 140.307 165.333 350.563 101.182 399.141-26.925 20.366-52.372-3.45-142.908-11.4-48.547-4.264-80.635-2-292.663 41.163-194.676 39.802-222.73 45.555-270.788 32.71-9.837-2.628-118.031-40.199-144.42-131.085-23.18-79.83 41.682-117.015 100.78-297.624 44.583-136.329 38.051-208.706 80.017-221.44 26.701-8.1 50.179 13.654 78.857 37.18 28.31 23.226 62.887 47.537 110.877 47.036z" transform="translate(-869.000000, -115.000000) translate(870.000000, 116.000000)"/>
                <path stroke="#AEC2EA" d="M197.094 1.418c-44.998 12.177-36.392 89.159-83.86 234.231C50.9 426.17-19.103 462.01 4.795 547.957c27.56 99.107 145.677 141.487 154.706 144.587 50.598 17.37 80.352 9.012 292.061-34.7 229.601-47.406 262.318-51.557 313.75-47.715 97.945 7.319 124.677 33.232 153.26 11.569 68.669-52.055 16.456-279.061-109.886-423.642-19.23-22.004-154.34-176.612-287.722-148.925-56.456 11.72-66.636 46.553-122.899 47.715C296.128 98.95 253.431-13.83 197.094 1.418z" transform="translate(-869.000000, -115.000000) translate(870.000000, 116.000000)"/>
            </g>
        </g>
    </g>
</svg>
