<?xml version="1.0" encoding="UTF-8"?>
<svg xmlns="http://www.w3.org/2000/svg" width="862" height="645" viewBox="0 0 862 645">
    <g fill="none" fill-rule="evenodd" opacity=".3">
        <g>
            <g>
                <path stroke="#06183B" d="M529.643 299.776c-38.906 21.061-60.647-2.685-149.863 13.032-13.211 2.327-134.151 24.332-135.53 58.644-1.19 29.642 86.62 74.315 172.018 72.976 56.799-.89 102.83-21.981 115.982-2.606 10.616 15.642-14.646 36.356-6.515 58.642 17.459 47.86 169.853 50.694 182.442 14.335 8.554-24.704-54.807-46.212-53.43-93.827 1.408-48.66 68.476-57.251 88.616-112.072 30.749-83.705-69.845-215.47-117.284-204.598-46.35 10.622-14.44 151.091-96.436 195.474z" transform="translate(-759.000000, -99.000000) translate(759.000000, 100.000000)"/>
                <path stroke="#102346" d="M636.91 99.497c-35.14 3.75-35.39 74.57-61.952 131.06-11.61 24.69-25.9 46.504-49.74 60.63-14.697 8.705-27.337 11.148-42.857 11.855-25.088 1.152-57.29-.51-113.076 5.32-2.747.287-8.59 1.171-16.439 2.07-9.365 1.072-19.904 2.221-32.413 4.796-40.68 8.528-91.453 29.945-91.333 51.988.041 7.505 6.101 14.73 14.75 23.216 10.725 10.521 23.635 21.282 42.83 30.774 17.58 8.696 39.635 15.156 63.624 20.271 16.267 3.431 32.36 5.267 48.051 5.916 17.914.741 33.69-.198 49.34-1.863 33.63-3.578 58.77-10.224 69.07 2.133 11.747 14.09-11.537 33.965-.642 54.675 8.848 16.82 31.611 28.531 63.012 35.976 53.068 12.583 126.033 8.48 135.883-17.162 9.397-24.459-51.602-45.795-50.28-95.384.164-6.008 1.266-11.467 3.152-16.513 13.07-34.947 64.315-48.732 81.255-98.32 11.884-34.789 6.457-68.667-7.098-101.932-23.58-57.86-72.524-112.869-105.137-109.506z" transform="translate(-759.000000, -99.000000) translate(759.000000, 100.000000)"/>
                <path stroke="#1B2D51" d="M647.743 94.691c-37.419-.14-44.71 68.773-74.85 124.233-14.009 25.78-28.28 48.326-52.103 63.672-14.515 9.35-27.428 12.741-43.877 14.493-26.61 2.853-61.89 4.15-118.12 6.827-3.18.151-9.22.832-17.096 1.115-10.302.366-20.333.246-33.467 2.39-42.398 6.925-95.363 33.147-94.279 55.56.378 7.815 7.531 14.189 15.938 23.058 10.581 11.16 19.643 22.745 37.801 33.415 16.474 9.68 38.94 16.267 64.162 22.741 17.01 4.3 33.18 6.659 48.591 8.163 18.314 1.786 33.296 2.058 49.78 1.094 34.025-1.993 59.466-9.308 71.06 2.053 12.78 12.526-8.083 31.62 5.23 50.707 11.712 16.793 33.828 28.72 68.713 37.749 55.427 14.34 134.997 13.375 146.634-14.457 10.133-24.237-48.398-45.376-47.133-96.938.157-5.988 1.177-11.49 2.973-16.62 12.181-34.793 60.853-49.888 77.228-100.975 12.658-39.49 7.785-70.876-4.975-103.738-21.655-55.775-67.355-114.41-102.21-114.542z" transform="translate(-759.000000, -99.000000) translate(759.000000, 100.000000)"/>
                <path stroke="#25385C" d="M658.575 89.886c-39.683-3.954-54.283 62.916-87.748 117.408-16.496 26.863-30.664 50.133-54.464 66.712-14.336 9.986-27.519 14.336-44.899 17.133-28.133 4.55-66.595 8.307-123.166 8.33-3.619.003-9.87.429-17.749.159-11.278-.385-20.757-1.701-34.52-.013-44.096 5.41-99.25 36.352-97.227 59.13.722 8.13 8.957 13.654 17.127 22.9 10.43 11.805 15.643 24.186 32.774 36.055 15.36 10.643 38.223 17.442 64.698 25.213 17.74 5.208 34.012 8.093 49.13 10.41 18.735 2.869 32.924 5.143 50.22 4.049 34.33-2.172 60.082-8.401 73.048 1.974 13.716 10.976-4.314 29.227 11.102 46.738 14.792 16.804 36.051 28.878 74.418 39.52 57.797 16.033 143.906 18.27 157.382-11.745 10.793-24.04-45.193-44.96-43.984-98.494.148-5.97 1.09-11.514 2.793-16.73 11.307-34.627 57.293-51.08 73.201-103.627 13.385-44.216 9.103-73.072-2.85-105.543-19.76-53.672-62.176-115.881-99.286-119.58z" transform="translate(-759.000000, -99.000000) translate(759.000000, 100.000000)"/>
                <path stroke="#304267" d="M669.408 85.081c-41.945-7.755-64.059 56.984-100.646 110.581-19.064 27.926-33.052 51.931-56.825 69.754-14.16 10.616-27.612 15.93-45.923 19.77-29.655 6.25-71.342 12.116-128.21 9.838-4.06-.163-10.533-.034-18.405-.797-12.27-1.192-21.179-3.647-35.574-2.418-45.786 3.908-103.113 39.56-100.173 62.701 1.074 8.445 10.38 13.123 18.317 22.743 10.276 12.456 11.64 25.6 27.746 38.694 14.248 11.582 37.52 18.564 65.235 27.685 18.48 6.081 34.852 9.57 49.67 12.654 19.17 3.99 32.476 7.538 50.657 7.007 34.75-1.014 60.62-7.479 75.038 1.894 14.561 9.465-.31 26.726 16.976 42.771 18.055 16.76 38.28 29.005 80.121 41.292 60.18 17.671 152.765 23.147 168.131-9.039 11.391-23.86-41.989-44.54-40.836-100.049.14-5.949 1.005-11.535 2.612-16.835 10.451-34.455 53.661-52.3 69.174-106.283 14.068-48.956 10.414-75.258-.727-107.349-17.893-51.545-56.992-117.338-96.358-124.614z" transform="translate(-759.000000, -99.000000) translate(759.000000, 100.000000)"/>
                <path stroke="#3B4D72" d="M680.24 80.275c-44.209-11.543-73.988 50.975-113.543 103.755-21.7 28.958-35.445 53.719-59.187 72.795-13.988 11.24-27.704 17.524-46.944 22.41-31.178 7.948-76.098 15.675-133.256 11.344-4.504-.343-11.196-.538-19.06-1.754-13.27-2.051-21.6-5.587-36.628-4.822-47.475 2.417-106.958 42.769-103.118 66.272 1.43 8.76 11.797 12.598 19.504 22.585 10.118 13.113 7.642 26.993 22.72 41.333 13.14 12.5 36.816 19.684 65.771 30.156 19.22 6.952 35.693 11.089 50.208 14.903 19.612 5.151 32.06 8.675 51.098 9.962 35.1 2.373 61.09-6.514 77.027 1.815 15.33 8.012 3.847 24.1 22.847 38.803 21.466 16.607 40.515 29.106 85.825 43.063 62.572 19.274 161.574 28.01 178.881-6.332 11.943-23.698-38.786-44.12-37.688-101.603.131-5.93.921-11.554 2.432-16.942 9.61-34.274 49.974-53.536 65.147-108.938 14.71-53.71 11.712-77.432 1.398-109.154-16.063-49.398-51.813-118.783-93.434-129.65z" transform="translate(-759.000000, -99.000000) translate(759.000000, 100.000000)"/>
                <path stroke="#45587D" d="M691.073 75.47c-46.476-15.322-84.037 44.884-126.44 96.93-24.4 29.945-37.845 55.496-61.549 75.836-13.819 11.857-27.796 19.117-47.967 25.048-32.7 9.647-80.84 19.054-138.3 12.848-4.947-.534-11.857-1.075-19.717-2.71-14.262-2.964-22.02-7.524-37.68-7.226-49.164.936-110.786 45.977-106.066 69.843 1.795 9.076 13.213 12.077 20.693 22.428 9.955 13.776 3.654 28.359 17.692 43.974 12.043 13.393 36.116 20.796 66.31 32.627 19.96 7.82 36.53 12.64 50.746 17.148 20.051 6.357 31.641 10.833 51.538 12.92 35.447 3.718 61.508-5.491 79.015 1.734 16.047 6.623 8.095 21.358 28.72 34.834 24.978 16.32 42.758 29.19 91.528 44.836 64.975 20.845 170.337 32.85 189.63-3.623 12.46-23.556-35.58-43.703-34.539-103.16.122-5.908.84-11.572 2.252-17.05 8.785-34.086 46.246-54.782 61.12-111.591 15.31-58.476 12.995-79.595 3.521-110.96-14.268-47.23-46.634-120.221-90.507-134.686z" transform="translate(-759.000000, -99.000000) translate(759.000000, 100.000000)"/>
                <path stroke="#506288" d="M701.905 70.664c-48.745-19.096-94.173 38.717-139.338 90.104-27.15 30.89-40.249 57.266-63.909 78.876-13.654 12.471-27.887 20.711-48.988 27.688-34.224 11.346-85.562 22.3-143.346 14.353-5.387-.74-12.512-1.637-20.373-3.664-15.243-3.928-22.44-9.46-38.735-9.63-50.85-.538-114.597 49.18-109.01 73.413 2.163 9.39 14.623 11.557 21.882 22.27 9.786 14.443-.321 29.705 12.665 46.613 10.958 14.27 35.416 21.908 66.844 35.098 20.701 8.69 37.362 14.228 51.287 19.395 20.481 7.602 31.224 12.965 51.976 15.877 35.8 5.021 61.897-4.397 81.005 1.655 16.736 5.3 12.385 18.51 34.594 30.865 28.551 15.887 45.005 29.251 97.23 46.608 67.385 22.394 179.057 37.666 200.38-.916 12.947-23.427-32.376-43.284-31.392-104.714.113-5.889.761-11.59 2.072-17.157 7.977-33.893 42.486-56.039 57.093-114.246 15.873-63.25 14.26-81.748 5.645-112.764-12.512-45.044-41.458-121.656-87.582-139.724z" transform="translate(-759.000000, -99.000000) translate(759.000000, 100.000000)"/>
                <path stroke="#5A6D93" d="M712.739 65.859C661.716 42.994 608.362 98.337 560.5 149.137c-29.947 31.785-42.659 59.03-66.27 81.917-13.491 13.08-27.978 22.305-50.012 30.326-35.745 13.045-90.248 25.445-148.389 15.86-5.823-.96-13.155-2.22-21.029-4.62-16.203-4.94-22.86-11.394-39.787-12.036-52.54-2-118.398 52.38-111.959 76.986 2.54 9.7 16.03 11.04 23.071 22.11 9.612 15.115-4.273 31.036 7.637 49.253 9.893 15.132 34.719 23.019 67.382 37.57 21.444 9.554 38.184 15.84 51.826 21.642 20.899 8.888 30.815 15.076 52.416 18.833 36.16 6.288 62.274-3.228 82.995 1.575 17.416 4.038 16.683 15.574 40.466 26.898 32.16 15.314 47.26 29.296 102.934 48.379 69.801 23.924 187.73 42.457 211.128 1.792 13.414-23.313-29.171-42.865-28.242-106.27.103-5.867.684-11.607 1.89-17.263 7.186-33.697 38.7-57.3 53.067-116.9 16.4-68.034 15.505-83.889 7.769-114.57-10.802-42.839-36.288-123.084-84.655-144.76z" transform="translate(-759.000000, -99.000000) translate(759.000000, 100.000000)"/>
                <path stroke="#65789D" d="M723.57 61.054c-53.298-26.632-114.625 26.17-165.135 76.45-32.78 32.633-45.076 60.787-68.63 84.96-13.336 13.687-28.072 23.9-51.034 32.965-37.268 14.743-94.905 28.515-153.435 17.364-6.257-1.191-13.79-2.816-21.684-5.575-17.143-5.991-23.282-13.323-40.841-14.441-54.23-3.455-122.186 55.578-114.905 80.557 2.92 10.01 17.432 10.528 24.26 21.954 9.431 15.787-8.203 32.352 2.61 51.893 8.844 15.983 34.02 24.124 67.918 40.04 22.188 10.418 38.992 17.476 52.364 23.889 21.293 10.21 30.409 17.165 52.858 21.789 36.526 7.525 62.65-1.991 84.983 1.496 18.1 2.826 20.973 12.567 46.337 22.93 35.783 14.618 49.523 29.327 108.639 50.15 72.225 25.44 196.365 47.219 221.876 4.5 13.863-23.211-25.966-42.447-25.093-107.825.096-5.848.61-11.624 1.71-17.37 6.409-33.496 34.89-58.564 49.04-119.555 16.893-72.822 16.722-86.017 9.891-116.375-9.135-40.614-31.12-124.508-81.728-149.796z" transform="translate(-759.000000, -99.000000) translate(759.000000, 100.000000)"/>
                <path stroke="#6F82A8" d="M734.404 56.248c-55.58-30.395-124.908 19.804-178.034 69.625-35.647 33.431-47.502 62.538-70.99 88.001-13.183 14.29-28.166 25.492-52.058 35.603-38.79 16.443-99.526 31.527-158.48 18.87-6.685-1.435-14.416-3.423-22.337-6.53-18.06-7.083-23.707-15.252-41.898-16.847-55.92-4.906-125.963 58.77-117.85 84.13 3.301 10.318 18.83 10.014 25.447 21.794 9.248 16.462-12.107 33.664-2.415 54.534 7.814 16.831 33.354 25.164 68.455 42.511 22.95 11.238 39.784 19.128 52.901 26.134 21.663 11.571 30.013 19.237 53.297 24.747 36.907 8.735 63.046-.69 86.974 1.416 18.8 1.655 25.242 9.505 52.21 18.961 39.399 13.815 51.79 29.345 114.34 51.922 74.655 26.946 204.962 51.954 232.626 7.21 14.297-23.122-22.761-42.03-21.944-109.382.087-5.828.54-11.64 1.53-17.476 5.646-33.293 31.064-59.83 45.013-122.21 17.354-77.617 17.905-88.135 12.016-118.18-7.523-38.377-25.956-125.932-78.803-154.833z" transform="translate(-759.000000, -99.000000) translate(759.000000, 100.000000)"/>
                <path stroke="#7A8DB3" d="M745.236 51.443c-57.923-34.056-135.212 13.38-190.932 62.8-38.54 34.18-49.933 64.285-73.351 91.04-13.031 14.89-28.256 27.088-53.078 38.244-40.315 18.14-104.115 34.494-163.526 20.375-7.11-1.69-15.03-4.038-22.994-7.486-18.948-8.207-24.129-17.178-42.95-19.252-57.613-6.35-129.734 61.957-120.797 87.7 3.69 10.626 20.225 9.505 26.636 21.639 9.055 17.139-15.99 34.97-7.444 57.17 6.806 17.68 32.658 26.279 68.992 44.985 23.694 12.104 40.564 20.794 53.441 28.38 22.005 12.962 29.623 21.288 53.738 27.703 37.3 9.923 63.652-1.858 88.96 1.337 19.379 2.446 29.488 6.4 58.084 14.993 43 12.92 54.063 29.35 120.043 53.693 77.09 28.442 213.52 56.66 243.376 9.918 14.719-23.043-19.558-41.611-18.796-110.937.077-5.808.472-11.656 1.35-17.584 4.898-33.089 27.223-61.099 40.984-124.865 17.788-82.415 19.05-90.243 14.142-119.986-5.962-36.125-20.853-127.254-75.879-159.868z" transform="translate(-759.000000, -99.000000) translate(759.000000, 100.000000)"/>
                <path stroke="#8498BE" d="M756.068 46.638c-60.2-37.836-145.528 6.907-203.828 55.973-41.456 34.888-52.375 66.028-75.714 94.083-12.886 15.488-28.349 28.679-54.101 40.88-41.836 19.84-108.666 37.43-168.57 21.88-7.53-1.954-15.635-4.655-23.65-8.441-19.813-9.358-24.55-19.102-44.003-21.656-59.31-7.79-133.499 65.138-123.743 91.27 4.08 10.93 21.617 8.996 27.825 21.483 8.86 17.818-19.85 36.284-12.472 59.81 5.812 18.53 31.96 27.39 69.528 47.455 24.438 12.973 41.327 22.474 53.981 30.628 22.316 14.379 29.242 23.324 54.178 30.659 37.706 11.092 63.922-.065 90.95 1.257 20.257.99 33.7 3.263 63.955 11.026 46.584 11.952 56.34 29.346 125.748 55.464 79.527 29.927 222.04 61.337 254.125 12.625 15.13-22.972-16.355-41.192-15.65-112.491.07-5.788.409-11.673 1.17-17.691 4.166-32.885 23.37-62.366 36.96-127.52 18.19-87.216 20.14-92.345 16.264-121.79-4.46-33.868-15.684-128.693-72.952-164.904z" transform="translate(-759.000000, -99.000000) translate(759.000000, 100.000000)"/>
                <path stroke="#8FA2C9" d="M766.9 41.832C704.423.216 611.05 42.222 550.175 90.98c-44.387 35.553-54.82 67.77-78.074 97.124-12.743 16.085-28.44 30.274-55.123 43.52-43.358 21.538-113.185 40.34-173.615 23.386-7.946-2.23-16.232-5.279-24.306-9.398-20.65-10.536-24.98-20.985-45.056-24.06-61.025-9.104-137.257 68.314-126.69 94.842 4.474 11.231 23.004 8.486 29.013 21.323 8.659 18.5-23.69 37.602-17.497 62.452 4.83 19.384 31.262 28.501 70.064 49.925 25.179 13.841 42.074 24.16 54.52 32.874 22.595 15.822 28.869 25.346 54.616 33.616 38.125 12.246 64.374 3.486 92.939 1.178 21.046-1.7 37.889.097 69.829 7.056 50.14 10.924 58.62 29.334 131.45 57.238 81.972 31.405 230.527 65.983 264.875 15.332 15.536-22.91-13.151-40.774-12.501-114.047.06-5.767.345-11.688.99-17.798 3.446-32.682 19.504-63.635 32.93-130.173 18.57-92.024 21.173-94.448 18.389-123.597-3.017-31.61-10.516-130.13-70.026-169.94z" transform="translate(-759.000000, -99.000000) translate(759.000000, 100.000000)"/>
                <path stroke="#99ADD4" d="M777.734 37.026c-64.758-45.396-166.177-6.17-229.625 42.321-47.335 36.178-57.272 69.508-80.436 100.165-12.603 16.683-28.532 31.869-56.145 46.16-44.881 23.237-117.671 43.229-178.66 24.89-8.357-2.513-16.82-5.9-24.961-10.352-21.464-11.736-25.403-22.918-46.11-26.466-62.72-10.571-141.01 71.487-129.636 98.414 4.87 11.53 24.389 7.976 30.2 21.166 8.454 19.18-27.513 38.928-22.523 65.091 3.86 20.248 30.564 29.612 70.6 52.397 25.922 14.707 42.806 25.849 55.06 35.12 22.843 17.284 28.507 27.355 55.055 36.573 38.558 13.388 64.872 4.937 94.929 1.096 21.843-2.79 42.05-3.085 75.7 3.09 53.677 9.847 60.907 29.313 137.155 59.008 84.418 32.88 238.98 70.6 275.623 18.042 15.937-22.86-9.945-40.357-9.352-115.603.052-5.748.286-11.704.81-17.905 2.74-32.48 15.63-64.903 28.904-132.827 18.923-96.834 22.123-96.554 20.513-125.403-1.64-29.36-5.351-131.57-67.101-174.976z" transform="translate(-759.000000, -99.000000) translate(759.000000, 100.000000)"/>
                <path stroke="#A4B7DF" d="M788.566 32.22c-67.036-49.176-176.5-12.766-242.522 35.497-50.293 36.765-59.78 71.207-82.797 103.205-12.494 17.259-28.624 33.462-57.167 48.798-46.404 24.937-122.125 46.105-183.705 26.397-8.763-2.805-17.4-6.527-25.618-11.31-22.254-12.951-25.826-24.852-47.163-28.87C85.178 193.896 4.834 280.59 17.01 307.922c5.27 11.828 25.746 7.479 31.39 21.008 8.205 19.877-31.324 40.267-27.551 67.73 2.9 21.123 29.866 30.727 71.138 54.87 26.664 15.575 43.52 27.54 55.598 37.367 23.059 18.763 28.154 29.35 55.495 39.529 39.004 14.52 65.396 6.405 96.918 1.018 22.662-3.873 46.186-6.285 81.573-.88 57.185 8.733 63.234 29.188 142.857 60.78 86.91 34.244 247.404 75.189 286.372 20.749 16.333-22.816-6.74-39.937-6.203-117.157.043-5.728.23-11.721.629-18.013 2.048-32.281 11.749-66.17 24.877-135.481 19.253-101.645 22.979-98.671 22.637-127.207-.325-27.131-.183-133.01-64.175-180.014z" transform="translate(-759.000000, -99.000000) translate(759.000000, 100.000000)"/>
                <path stroke="#AEC2EA" d="M137.39 198.13C71.28 184.62-11.113 275.946 1.863 303.687c5.67 12.123 27.15 6.959 32.579 20.85 8.026 20.542-35.126 41.613-32.58 70.371 1.949 22.002 29.169 31.837 71.675 57.339 80.886 48.528 69.537 65.238 112.072 82.1 67.597 26.796 97.105-15.072 186.353-3.91 60.672 7.589 65.49 29.248 148.56 62.552 89.323 35.812 255.796 79.746 297.122 23.457 17.93-24.422-6.648-41.9-2.606-136.832 1.366-32.088 7.86-67.437 20.85-138.136 19.56-106.458 23.715-100.817 24.76-129.013.925-24.936 4.984-134.446-61.248-185.05-69.315-52.957-186.82-19.396-255.42 28.67-81.873 57.365-59.008 110.81-143.35 157.684-54.985 30.558-150.381 55.459-215.021 15.637-23.024-14.184-26.248-26.786-48.217-31.276z" transform="translate(-759.000000, -99.000000) translate(759.000000, 100.000000)"/>
            </g>
        </g>
    </g>
</svg>
